<?xml version="1.0" encoding="UTF-8"?>
<svg width="50px" height="50px" viewBox="0 0 50 50" version="1.1" xmlns="http://www.w3.org/2000/svg" xmlns:xlink="http://www.w3.org/1999/xlink">
    <!-- Generator: Sketch 50.2 (55047) - http://www.bohemiancoding.com/sketch -->
    <title>drag-and-drop</title>
    <desc>Created with Sketch.</desc>
    <defs></defs>
    <g id="[current]-Landing-page" stroke="none" stroke-width="1" fill="none" fill-rule="evenodd">
        <g id="chatchamp-" transform="translate(-242.000000, -4243.000000)">
            <g id="section-7" transform="translate(242.000000, 4145.000000)">
                <g id="features" transform="translate(0.000000, 98.000000)">
                    <g id="drag-and-drop">
                        <g>
                            <path d="M8.36352,-2.13162821e-14 L41.63648,-2.30926389e-14 C46.2555246,-2.39411436e-14 50,3.74447545 50,8.36352 L50,41.63648 C50,46.2555246 46.2555246,50 41.63648,50 L8.36352,50 C3.74447545,50 -3.73695801e-13,46.2555246 -3.78364007e-13,41.63648 L-3.78364007e-13,8.36352 C-3.78929677e-13,3.74447545 3.74447545,-2.22441342e-14 8.36352,-2.30926389e-14 Z" id="bg" fill="#E2E3FF"></path>
                            <g id="icon" transform="translate(13.000000, 12.000000)" fill="#2E3192" fill-rule="nonzero">
                                <rect id="Rectangle-path" x="15.972704" y="21.2051745" width="1.06536" height="1.46278364"></rect>
                                <polygon id="Shape" points="15.9728 24.6554848 15.44 24.6554848 15.44 25.7045455 17.038 25.7045455 17.038 24.1307576 15.9728 24.1307576"></polygon>
                                <rect id="Rectangle-path" x="11.553644" y="24.6553509" width="1.943192" height="1.04921818"></rect>
                                <rect id="Rectangle-path" x="3.78114" y="24.6553509" width="1.943192" height="1.04921818"></rect>
                                <rect id="Rectangle-path" x="7.667392" y="24.6553509" width="1.943192" height="1.04921818"></rect>
                                <polygon id="Shape" points="1.3052 24.1307576 0.24 24.1307576 0.24 25.7045455 1.838 25.7045455 1.838 24.6554848 1.3052 24.6554848"></polygon>
                                <rect id="Rectangle-path" x="0.24004" y="12.6485076" width="1.06536" height="1.9137497"></rect>
                                <rect id="Rectangle-path" x="0.24004" y="16.475877" width="1.06536" height="1.9137497"></rect>
                                <rect id="Rectangle-path" x="0.24004" y="20.3032424" width="1.06536" height="1.9137497"></rect>
                                <polygon id="Shape" points="0.24 10.7348485 1.3052 10.7348485 1.3052 10.2101212 1.838 10.2101212 1.838 9.16106061 0.24 9.16106061"></polygon>
                                <rect id="Rectangle-path" x="3.636788" y="9.16093061" width="1.798708" height="1.04921818"></rect>
                                <path d="M23.960276,4.77264273 C23.9606877,4.63353366 23.9040169,4.50016094 23.803128,4.40280061 L19.645564,0.305602424 C19.5467014,0.206238995 19.4112706,0.150426633 19.270016,0.150835455 L8.7668,0.15083723 C8.21451594,0.15083723 7.76680098,0.598551398 7.7668,1.15083545 L7.766784,9.16099364 L7.234104,9.16099364 L7.234104,10.2102118 L7.7668,10.2102118 L7.7668,18.2177621 C7.7668,18.7700469 8.21451525,19.2177621 8.7668,19.2177621 L15.972736,19.2177621 L15.972736,19.7423712 L17.038096,19.7423712 L17.038096,19.2177621 L20.833444,19.2177621 L22.6161118,19.2177621 C23.2737612,19.2177621 23.8088866,18.6884266 23.8160407,18.0308161 L23.960276,4.77264273 Z M22.213088,4.31886 L19.728128,4.31886 L19.728128,1.86892727 L22.213088,4.31886 Z M22.894928,18.1685439 L8.832144,18.1685439 L8.832144,1.20005364 L18.662768,1.20005364 L18.662768,4.84348485 C18.6636335,5.13286464 18.9016162,5.36724155 19.195448,5.36809394 L22.894916,5.36809394 L22.894916,13.4916364 L22.894928,18.1685439 Z" id="Shape"></path>
                            </g>
                        </g>
                    </g>
                </g>
            </g>
        </g>
    </g>
</svg>