<?xml version="1.0" encoding="UTF-8"?>
<svg width="50px" height="50px" viewBox="0 0 50 50" version="1.1" xmlns="http://www.w3.org/2000/svg" xmlns:xlink="http://www.w3.org/1999/xlink">
    <!-- Generator: Sketch 50.2 (55047) - http://www.bohemiancoding.com/sketch -->
    <title>growth-tools</title>
    <desc>Created with Sketch.</desc>
    <defs></defs>
    <g id="[current]-Landing-page" stroke="none" stroke-width="1" fill="none" fill-rule="evenodd">
        <g id="chatchamp-" transform="translate(-748.000000, -4243.000000)">
            <g id="section-7" transform="translate(242.000000, 4145.000000)">
                <g id="features" transform="translate(0.000000, 98.000000)">
                    <g id="growth" transform="translate(506.000000, 0.000000)">
                        <g id="growth-tools">
                            <path d="M8.36352,-2.13162821e-14 L41.63648,-2.30926389e-14 C46.2555246,-2.39411436e-14 50,3.74447545 50,8.36352 L50,41.63648 C50,46.2555246 46.2555246,50 41.63648,50 L8.36352,50 C3.74447545,50 -3.73695801e-13,46.2555246 -3.78364007e-13,41.63648 L-3.78364007e-13,8.36352 C-3.78929677e-13,3.74447545 3.74447545,-2.22441342e-14 8.36352,-2.30926389e-14 Z" id="bg" fill="#D5FFFC"></path>
                            <path d="M29.5899495,19 L29.5899495,21 L31.1899495,21 L25.5899495,26.6 L22.2970563,23.3071068 C21.906532,22.9165825 21.273367,22.9165825 20.8828427,23.3071068 L15.2899495,28.9 C14.9033502,29.2865993 14.9033502,29.9134007 15.2899495,30.3 L15.2899495,30.3 C15.6765488,30.6865993 16.3033502,30.6865993 16.6899495,30.3 L21.5899495,25.4 L24.8828427,28.6928932 C25.273367,29.0834175 25.906532,29.0834175 26.2970563,28.6928932 L32.5899495,22.4 L32.5899495,24 L34.5899495,24 L34.5899495,20 C34.5899495,19.4477153 34.1422342,19 33.5899495,19 L29.5899495,19 Z" id="icon" fill="#02A79D" fill-rule="nonzero"></path>
                        </g>
                    </g>
                </g>
            </g>
        </g>
    </g>
</svg>