<?xml version="1.0" encoding="utf-8"?>
<!-- Generator: Adobe Illustrator 19.2.1, SVG Export Plug-In . SVG Version: 6.00 Build 0)  -->
<svg version="1.1" id="Ebene_1" xmlns="http://www.w3.org/2000/svg" xmlns:xlink="http://www.w3.org/1999/xlink" x="0px" y="0px"
	 viewBox="0 0 685.6 271.5" style="enable-background:new 0 0 685.6 271.5;" xml:space="preserve">
<style type="text/css">
	.st0{opacity:0.5;fill:#285EA4;enable-background:new    ;}
	.st1{fill:#3A3A3A;}
	.st2{opacity:0.5;fill:#FFFFFF;enable-background:new    ;}
	.st3{fill:#285EA4;}
	.st4{opacity:0.25;fill:#FFFFFF;enable-background:new    ;}
	.st5{opacity:0.25;fill:#285EA4;enable-background:new    ;}
</style>
<g>
	<path class="st0" d="M303.8,218.6c-1.6-1.2-3.3-1.7-5.2-1.7c-2.4,0-4,0.8-4,2.9c0,4.7,12.1,2.6,12.1,11.1c0,5.1-4.5,6.9-9,6.9
		c-3,0-6.1-0.8-7.8-2.8l2.2-2.8c1.5,1.5,3.5,2.2,5.9,2.2c2.5,0,4.4-0.7,4.4-3.3c0-5-12.1-2.8-12.1-11.1c0-4.5,3.9-6.6,8.7-6.6
		c2.7,0,5.3,0.7,7.1,2.4L303.8,218.6z"/>
	<path class="st0" d="M313.9,203.2c1.6,0,2.7,1.2,2.7,2.7c0,1.6-1.2,2.8-2.7,2.8c-1.6,0-2.7-1.2-2.7-2.8S312.3,203.2,313.9,203.2z
		 M316,213.9v23.5h-4.2v-23.5L316,213.9L316,213.9z"/>
	<path class="st0" d="M327.3,213.9v4.9c1.1-3.3,3.6-5.5,7.4-5.5c3.5,0,5.7,1.8,6.5,5.6c1.2-3.3,3.8-5.6,7.5-5.6
		c4.2,0,6.7,2.9,6.7,7.8v16.3h-4.2v-15.3c0-3.2-0.7-4.9-3.2-4.9c-3.3,0-6.5,3.3-6.5,11.8v8.4h-4.2V222c0-2.9-0.6-4.9-3.2-4.9
		c-3.3,0-6.5,3.3-6.5,11.8v8.4h-4.2v-23.5L327.3,213.9L327.3,213.9z"/>
	<path class="st0" d="M366.4,213.9v4.1c1.5-2.9,4.5-4.7,7.8-4.7c2.4,0,4.1,0.9,5.4,2.2c2.2,2.3,2.8,6,2.8,9.7
		c0,4.3-0.8,8.2-3.3,10.5c-1.5,1.3-3.5,2.2-6.1,2.2c-2.3,0-4.8-0.7-6.4-2.8v13.7h-4.2V214h4V213.9z M368.6,219.5
		c-1.6,2.1-2.2,4.8-2.2,7.4c0,2.3,0.4,4.2,1.5,5.5c1,1.2,2.6,1.8,4.6,1.8c4,0,5.4-2.5,5.4-8.8c0-5.8-1.2-8.3-4.4-8.3
		C371.6,217.1,369.8,217.9,368.6,219.5z"/>
	<path class="st0" d="M391.8,201.3v36h-4.3v-36H391.8z"/>
	<path class="st0" d="M410.9,236c-2.4,7.8-5.3,12.7-10.6,12.7c-1.4,0-2.7-0.3-3.4-0.8l1.5-3.5c0.7,0.3,1.4,0.5,2.1,0.5
		c2.8,0,4.4-2.3,6-7.6H404l-7.7-23.3h4.5l6.6,21.2l5.9-21.2h4.5L410.9,236z"/>
	<path class="st0" d="M450.8,213.9v24.3c0,5.4-2,10.6-10.8,10.6c-3.3,0-6.5-0.8-8.8-2.7l2.2-3.2c1.9,1.6,4.3,2.1,6.8,2.1
		c5.6,0,6.5-2.6,6.5-7v-4.8c-1.5,3-4.4,4.5-7.7,4.5c-2.7,0-4.7-1-6-2.8c-1.6-2.1-2.3-5.2-2.3-9.1c0-4,0.7-7.3,2.8-9.7
		c1.4-1.6,3.5-2.8,6.6-2.8c2.7,0,5.2,0.9,6.8,3.5l0.1-3.1h3.8V213.9z M444.2,232.1c1.5-1.6,2.5-4.2,2.5-7.7c0-2.2-0.4-4.4-1.9-5.8
		c-1-1-2.4-1.6-4.2-1.6c-4.3,0-5.4,3.3-5.4,8.8c0,5.5,1,8.2,4.6,8.2C441.3,234.1,443,233.5,444.2,232.1z"/>
	<path class="st0" d="M473.3,234.8c-1.8,1.9-4,3.1-7.7,3.1c-3.5,0-5.8-1.1-7.4-2.8c-2.1-2.3-2.6-5-2.6-9c0-4.3,0.6-7.3,2.8-9.7
		c1.8-1.9,4.1-3,7.7-3c3.5,0,5.8,1.1,7.4,2.8c2.1,2.3,2.6,5.2,2.6,9.2C476.1,229.6,475.5,232.3,473.3,234.8z M470.1,218.4
		c-0.8-0.8-2-1.5-4.1-1.5c-2.4,0-3.5,0.8-4.2,1.6c-1.3,1.6-1.7,4.3-1.7,7.3c0,3.3,0.5,5.5,1.6,6.9c0.7,0.8,2,1.5,4.1,1.5
		c2.4,0,3.6-0.8,4.3-1.6c1.3-1.6,1.7-4.2,1.7-7.2C471.7,222.3,471.2,219.8,470.1,218.4z"/>
	<path class="st0" d="M497.6,234.8c-1.8,1.9-4,3.1-7.7,3.1c-3.5,0-5.8-1.1-7.4-2.8c-2.1-2.3-2.6-5-2.6-9c0-4.3,0.6-7.3,2.8-9.7
		c1.8-1.9,4.1-3,7.7-3c3.5,0,5.8,1.1,7.4,2.8c2.1,2.3,2.6,5.2,2.6,9.2C500.5,229.6,499.8,232.3,497.6,234.8z M494.4,218.4
		c-0.8-0.8-2-1.5-4.1-1.5c-2.4,0-3.5,0.8-4.2,1.6c-1.3,1.6-1.7,4.3-1.7,7.3c0,3.3,0.5,5.5,1.6,6.9c0.7,0.8,2,1.5,4.1,1.5
		c2.4,0,3.6-0.8,4.3-1.6c1.3-1.6,1.7-4.2,1.7-7.2C496,222.3,495.6,219.8,494.4,218.4z"/>
	<path class="st0" d="M524.7,201.3v36h-4.1v-4.1c-1.6,3-4.6,4.7-7.9,4.7c-2.2,0-4-0.8-5.3-2.3c-1.9-2.1-2.8-4.9-2.8-9.6
		c0-4.2,0.7-7.7,2.9-10c1.5-1.6,3.6-2.6,6.7-2.6c2.6,0,4.9,0.8,6.2,2.9v-14.9h4.3V201.3z M518,232.1c1.8-1.9,2.6-4.5,2.6-7.7
		c0-2.7-0.6-4.6-1.8-5.8c-1.1-1.1-2.5-1.5-4.1-1.5c-4.5,0-5.5,3.1-5.5,8.7c0,5.5,1,8.4,4.4,8.4C515.1,234.2,516.7,233.5,518,232.1z"
		/>
	<path class="st0" d="M545.8,201.3v17.1c0.9-2.9,3.7-5.1,7.5-5.1c4.3,0,6.8,2.9,6.8,7.8v16.3h-4.2v-15.5c0-3.1-0.8-4.7-3.3-4.7
		c-3.4,0-6.8,3.2-6.8,12v8.2h-4.2v-36h4.2V201.3z"/>
	<path class="st0" d="M585.4,234c-2.5,2.6-5.4,3.8-9.3,3.8c-3.3,0-5.6-0.9-7.2-2.5c-1.9-1.9-2.9-4.6-2.9-9c0-3.7,0.7-7.6,2.8-9.9
		c1.5-1.7,3.9-3.1,7.5-3.1c6.8,0,9.3,4.5,9.3,10.1c0,0.8,0,2-0.1,2.9l-15.1,0.1c0.1,4.8,0.8,7.9,5.7,7.9c2.8,0,5.1-1,7-2.8
		L585.4,234z M581.3,222.9c0-3.8-0.8-6.1-4.9-6.1c-4.3,0-5.5,2.4-5.7,6.2L581.3,222.9z"/>
	<path class="st0" d="M590.3,216.7c2.2-2.4,5.1-3.3,8.5-3.3c5.8,0,8.9,2.4,8.9,8.6v15.4h-3.9v-3.9c-1.5,3-4.4,4.4-7.5,4.4
		c-2.2,0-3.9-0.7-5-1.8c-1.3-1.2-1.9-2.8-1.9-5c0-2.7,0.9-4.4,2.7-5.7c2-1.4,4.9-1.9,8.2-1.9h3.4v-1.2c0-4.1-1.2-5.4-4.9-5.4
		c-2.6,0-4.4,0.7-6.1,2.4L590.3,216.7z M599.8,226.7c-3.8,0-6.1,0.6-6.1,4.2c0,2.2,0.8,3.5,3.2,3.5c3,0,6.6-2.3,6.7-7.7L599.8,226.7
		L599.8,226.7z"/>
	<path class="st0" d="M617.7,213.9v4.7c1.4-3.7,3.8-5.2,6.5-5.2c1,0,2,0.2,2.8,0.7l-1.2,4c-0.4-0.3-1.4-0.4-2-0.4
		c-4.1,0-5.9,5.2-5.9,10.8v9h-4.2V214L617.7,213.9L617.7,213.9z"/>
	<path class="st0" d="M633.5,203.2c1.6,0,2.7,1.2,2.7,2.7c0,1.6-1.2,2.8-2.7,2.8c-1.6,0-2.7-1.2-2.7-2.8S632,203.2,633.5,203.2z
		 M635.6,213.9v23.5h-4.2v-23.5L635.6,213.9L635.6,213.9z"/>
	<path class="st0" d="M645.9,213.9v4.9c1.1-3.3,3.9-5.5,7.7-5.5c4.4,0,6.9,3,6.9,7.8v16.3h-4.2v-15.3c0-3.2-0.8-4.9-3.3-4.9
		c-3.7,0-6.7,3.5-6.7,11.9v8.3h-4.2v-23.5L645.9,213.9L645.9,213.9z"/>
	<path class="st0" d="M685.4,213.9v24.3c0,5.4-2,10.6-10.8,10.6c-3.3,0-6.5-0.8-8.8-2.7l2.2-3.2c1.9,1.6,4.3,2.1,6.8,2.1
		c5.6,0,6.5-2.6,6.5-7v-4.8c-1.5,3-4.4,4.5-7.7,4.5c-2.7,0-4.7-1-6-2.8c-1.6-2.1-2.3-5.2-2.3-9.1c0-4,0.7-7.3,2.8-9.7
		c1.4-1.6,3.5-2.8,6.6-2.8c2.7,0,5.2,0.9,6.8,3.5l0.1-3.1h3.8V213.9z M678.8,232.1c1.5-1.6,2.5-4.2,2.5-7.7c0-2.2-0.4-4.4-1.9-5.8
		c-1-1-2.4-1.6-4.2-1.6c-4.3,0-5.4,3.3-5.4,8.8c0,5.5,1,8.2,4.6,8.2C676,234.1,677.6,233.5,678.8,232.1z"/>
	<path id="XMLID_209_" class="st1" d="M145.6,98.3h15.7V129c3.1-2.7,6.2-4.7,9.3-6s6.3-2,9.5-2c6.3,0,11.5,2.2,15.8,6.5
		c3.7,3.8,5.5,9.3,5.5,16.5v41.7h-15.6V158c0-7.3-0.3-12.3-1-14.9c-0.7-2.6-1.9-4.5-3.6-5.8c-1.7-1.3-3.8-1.9-6.2-1.9
		c-3.2,0-6,1.1-8.3,3.2c-2.3,2.1-3.9,5-4.8,8.7c-0.5,1.9-0.7,6.2-0.7,13v25.4h-15.7V98.3H145.6z"/>
	<path id="XMLID_206_" class="st1" d="M280,158.8h-50.9c0.7,4.5,2.7,8.1,5.9,10.7c3.2,2.6,7.3,4,12.2,4c5.9,0,11-2.1,15.3-6.2
		l13.3,6.3c-3.3,4.7-7.3,8.2-12,10.5c-4.6,2.3-10.2,3.4-16.5,3.4c-9.9,0-18-3.1-24.2-9.4c-6.2-6.2-9.3-14.1-9.3-23.5
		c0-9.6,3.1-17.6,9.3-24s14-9.5,23.4-9.5c9.9,0,18,3.2,24.3,9.5c6.2,6.4,9.3,14.8,9.3,25.2L280,158.8z M264.2,146.3
		c-1-3.5-3.1-6.4-6.2-8.6c-3.1-2.2-6.7-3.3-10.7-3.3c-4.4,0-8.3,1.2-11.6,3.7c-2.1,1.5-4,4.3-5.8,8.2L264.2,146.3L264.2,146.3z"/>
	<path id="XMLID_203_" class="st1" d="M339.5,122.7h15.8v63.1h-15.8v-6.7c-3.1,2.9-6.2,5.1-9.3,6.4c-3.1,1.3-6.5,1.9-10.1,1.9
		c-8.2,0-15.2-3.2-21.2-9.5c-5.9-6.3-8.9-14.2-8.9-23.6c0-9.7,2.9-17.7,8.6-24s12.7-9.3,21-9.3c3.8,0,7.3,0.7,10.7,2.1
		c3.3,1.4,6.4,3.6,9.2,6.4L339.5,122.7L339.5,122.7z M322.8,135.7c-4.9,0-9,1.7-12.2,5.2s-4.9,7.9-4.9,13.3c0,5.5,1.6,9.9,4.9,13.5
		c3.3,3.5,7.4,5.3,12.2,5.3c5,0,9.1-1.7,12.4-5.2s4.9-8,4.9-13.6c0-5.5-1.6-9.9-4.9-13.3S327.8,135.7,322.8,135.7z"/>
	<path id="XMLID_201_" class="st1" d="M373.7,122.7h13.6v7.9c1.5-3.1,3.4-5.5,5.9-7.1c2.4-1.6,5.1-2.4,8-2.4c2,0,4.2,0.5,6.4,1.6
		l-4.9,13.6c-1.9-0.9-3.4-1.4-4.6-1.4c-2.4,0-4.5,1.5-6.2,4.5s-2.5,8.9-2.5,17.8l0.1,3.1v25.5h-15.7L373.7,122.7L373.7,122.7z"/>
	<path id="XMLID_199_" class="st1" d="M422.1,169.3c2.5,0,4.7,0.9,6.4,2.6c1.8,1.8,2.7,3.9,2.7,6.4s-0.9,4.7-2.7,6.4
		c-1.8,1.8-3.9,2.7-6.4,2.7s-4.7-0.9-6.4-2.7c-1.8-1.8-2.7-3.9-2.7-6.4s0.9-4.7,2.7-6.4C417.4,170.1,419.6,169.3,422.1,169.3z"/>
	<path id="XMLID_197_" class="st1" d="M503.3,135.4l-13.2,7.3c-2.5-2.6-4.9-4.4-7.3-5.4s-5.3-1.5-8.5-1.5c-5.9,0-10.7,1.8-14.4,5.3
		c-3.7,3.5-5.5,8.1-5.5,13.6c0,5.4,1.8,9.8,5.3,13.1c3.5,3.4,8.2,5.1,13.9,5.1c7.1,0,12.6-2.4,16.6-7.3l12.5,8.6
		c-6.8,8.8-16.3,13.2-28.7,13.2c-11.1,0-19.8-3.3-26.1-9.9c-6.3-6.6-9.4-14.3-9.4-23.1c0-6.1,1.5-11.7,4.6-16.9s7.3-9.2,12.8-12.1
		c5.5-2.9,11.6-4.4,18.4-4.4c6.3,0,11.9,1.2,16.9,3.7C496.1,127.3,500.2,130.8,503.3,135.4z"/>
	<path id="XMLID_194_" class="st1" d="M544.9,121c6,0,11.6,1.5,16.8,4.5s9.3,7,12.3,12.1c2.9,5.1,4.4,10.6,4.4,16.5
		c0,6-1.5,11.5-4.4,16.7c-3,5.2-7,9.2-12.1,12.2c-5.1,2.9-10.7,4.4-16.9,4.4c-9.1,0-16.8-3.2-23.2-9.7c-6.4-6.4-9.6-14.3-9.6-23.5
		c0-9.9,3.6-18.1,10.9-24.7C529.3,123.9,536.6,121,544.9,121z M545.1,136c-4.9,0-9,1.7-12.3,5.1c-3.3,3.4-4.9,7.8-4.9,13.1
		c0,5.5,1.6,9.9,4.9,13.3s7.3,5.1,12.3,5.1s9.1-1.7,12.4-5.2c3.3-3.4,4.9-7.9,4.9-13.3c0-5.4-1.6-9.8-4.9-13.2
		C554.3,137.6,550.2,136,545.1,136z"/>
	<path id="XMLID_192_" class="st1" d="M588.8,122.7h15.8v7.3c2.7-3,5.7-5.2,9-6.7s6.9-2.2,10.8-2.2c3.9,0,7.5,1,10.7,2.9
		s5.7,4.8,7.7,8.5c2.5-3.7,5.6-6.5,9.3-8.5c3.7-1.9,7.7-2.9,12-2.9c4.5,0,8.4,1,11.8,3.1c3.4,2.1,5.9,4.8,7.3,8.2
		c1.5,3.4,2.2,8.8,2.2,16.4v37h-16v-32c0-7.2-0.9-12-2.7-14.5s-4.4-3.8-8-3.8c-2.7,0-5.1,0.8-7.3,2.3c-2.1,1.5-3.7,3.7-4.8,6.4
		c-1,2.7-1.6,7.1-1.6,13.1v28.5h-16v-30.6c0-5.6-0.4-9.7-1.3-12.3c-0.8-2.5-2.1-4.4-3.8-5.7c-1.7-1.2-3.7-1.9-6-1.9
		c-2.6,0-5,0.8-7.2,2.3c-2.2,1.6-3.8,3.8-4.8,6.6c-1.1,2.8-1.6,7.3-1.6,13.3v28.1h-15.8v-62.9H588.8z"/>
	<path class="st2" d="M68.4,141.6c-0.1-1.7-0.1-3.5-0.1-5.3s0-3.5,0.1-5.3c2.1-55.4,37.2-102.3,86.2-121.6c4.2-1.6,3.4-7.7-1.1-8.3
		h-0.2C86.2,9.6,34.2,66.8,34.2,136.3s52,126.7,119.2,135.1l0,0c4.5-0.6,5.3-6.7,1.1-8.4C105.5,243.7,70.5,196.9,68.4,141.6"/>
	<path class="st3" d="M0.1,136.3c0,47.6,24.4,89.4,61.3,113.8c2.3,1.5,4.5,3.2,7.1,4.3c0.6,0.2,1.1,0.4,1.7,0.5
		c6,0.9,11.1-4.8,11.1-10.8c0-2.9-1.1-5.5-2.9-7.4c-0.4-0.3-0.7-0.7-1-1c-26.6-24.8-43.2-60.2-43.2-99.4
		c0-69.5,52-126.7,119.2-135.1c-5.6-0.7-11.3-1.1-17-1.1C61.1,0.1,0.1,61.1,0.1,136.3"/>
	<path class="st4" d="M148.3,30.6c-16,9.7-29.9,22.5-40.7,37.7c-0.4,0.5-0.7,1-1.1,1.5c0,0,0,0,0,0.1c-0.4,1.1-0.4,2.3,0.3,3.6
		c0.7,1.3,2.2,2.1,3.7,2c0.7,0,1.3-0.3,1.8-0.7c0.6-0.5,1.1-1,1.7-1.5c18.3-17.4,43.1-28.1,70.4-28.1c27.8,0,53,11.1,71.4,29.1
		c0.1,0.1,0.1,0.1,0.2,0.2c1,0.9,2.5,1.4,4,1c1.4-0.4,2.5-1.6,2.9-3l0,0c0.2-0.9-0.1-1.9-0.6-2.7c-0.4-0.6-0.8-1.2-1.2-1.7
		c-10.8-15-24.6-27.8-40.5-37.4C198.4,17.2,170.4,17.2,148.3,30.6"/>
	<path class="st0" d="M68.4,141.6c-0.1-1.7-0.1-3.5-0.1-5.3s0-3.5,0.1-5.3c2.1-55.4,37.2-102.3,86.2-121.6c4.2-1.6,3.4-7.7-1.1-8.3
		h-0.2C86.2,9.6,34.2,66.8,34.2,136.3s52,126.7,119.2,135.1l0,0c4.5-0.6,5.3-6.7,1.1-8.4C105.5,243.7,70.5,196.9,68.4,141.6"/>
	<path class="st5" d="M148.3,30.6c-16,9.7-29.9,22.5-40.7,37.7c-0.4,0.5-0.7,1-1.1,1.5c0,0,0,0,0,0.1c-0.4,1.1-0.4,2.3,0.3,3.6
		c0.7,1.3,2.2,2.1,3.7,2c0.7,0,1.3-0.3,1.8-0.7c0.6-0.5,1.1-1,1.7-1.5c18.3-17.4,43.1-28.1,70.4-28.1c27.8,0,53,11.1,71.4,29.1
		c0.1,0.1,0.1,0.1,0.2,0.2c1,0.9,2.5,1.4,4,1c1.4-0.4,2.5-1.6,2.9-3l0,0c0.2-0.9-0.1-1.9-0.6-2.7c-0.4-0.6-0.8-1.2-1.2-1.7
		c-10.8-15-24.6-27.8-40.5-37.4C198.4,17.2,170.4,17.2,148.3,30.6"/>
</g>
</svg>
