<?xml version="1.0" encoding="UTF-8"?>
<svg width="50px" height="50px" viewBox="0 0 50 50" version="1.1" xmlns="http://www.w3.org/2000/svg" xmlns:xlink="http://www.w3.org/1999/xlink">
    <!-- Generator: Sketch 50.2 (55047) - http://www.bohemiancoding.com/sketch -->
    <title>marketing-automation</title>
    <desc>Created with Sketch.</desc>
    <defs></defs>
    <g id="[current]-Landing-page" stroke="none" stroke-width="1" fill="none" fill-rule="evenodd">
        <g id="chatchamp-" transform="translate(-495.000000, -4490.000000)">
            <g id="section-7" transform="translate(242.000000, 4145.000000)">
                <g id="features" transform="translate(0.000000, 98.000000)">
                    <g id="marketing" transform="translate(253.000000, 247.000000)">
                        <g id="marketing-automation">
                            <path d="M8.36352,-2.13162821e-14 L41.63648,-2.30926389e-14 C46.2555246,-2.39411436e-14 50,3.74447545 50,8.36352 L50,41.63648 C50,46.2555246 46.2555246,50 41.63648,50 L8.36352,50 C3.74447545,50 -3.73695801e-13,46.2555246 -3.78364007e-13,41.63648 L-3.78364007e-13,8.36352 C-3.78929677e-13,3.74447545 3.74447545,-2.22441342e-14 8.36352,-2.30926389e-14 Z" id="bg" fill="#E2E3FF"></path>
                            <path d="M32.2008781,20.2734588 L31.805708,20.2734588 L31.805708,16.6632095 C31.8054089,16.4265725 31.6802371,16.2079755 31.4771326,16.0893937 C31.2740281,15.9708118 31.023683,15.9701646 30.819978,16.0876946 C29.2173435,17.019586 24.560922,19.4389622 22.3852909,19.4389622 L16.6333699,19.4389622 C15.731786,19.4401816 15.0012094,20.1767912 15,21.0858202 L15,25.9998322 C15.000628,26.8080524 15.5828592,27.4963698 16.3743139,27.6245551 L18.4138309,34.0194111 C18.5551516,34.5862048 19.0549528,34.9877162 19.6344676,35 C19.6932512,34.9998198 19.7519461,34.9953813 19.8100988,34.9867189 C20.6871372,34.9235294 21.5384489,34.6601229 22.2996707,34.2164143 C22.4618112,34.1407834 22.6102279,34.0382785 22.7387486,33.9131622 C22.7644323,33.8871308 22.7879303,33.8589965 22.8090011,33.8290485 C23.2082193,33.2651305 23.206453,32.5073638 22.8046103,31.9453439 C22.560922,31.549124 21.9264544,29.9996608 21.8496158,27.6444767 L22.3787047,27.6444767 C25.1844127,27.6444767 30.7585071,30.9647551 30.8155872,30.9913173 C31.0185471,31.1105263 31.2691135,31.1117304 31.4731912,30.9944775 C31.6772689,30.8772245 31.8039675,30.6592626 31.805708,30.4224429 L31.805708,25.917932 L32.2008781,25.917932 C33.200908,25.917932 34.1249738,25.3800168 34.6249888,24.5068137 C35.1250037,23.6336107 35.1250037,22.5577801 34.6249888,21.6845771 C34.1249738,20.811374 33.200908,20.2734588 32.2008781,20.2734588 Z M16.3172338,25.9998322 L16.3172338,21.0858202 C16.3195962,20.9107774 16.4597607,20.7694554 16.6333699,20.7670735 L21.726674,20.7670735 L21.726674,26.3185789 L16.6333699,26.3185789 C16.4597607,26.316197 16.3195962,26.174875 16.3172338,25.9998322 Z M21.7596048,33.003406 L21.67618,33.0476763 L21.6059275,33.0897332 C21.4456641,33.1959821 20.8397365,33.5523586 19.6849616,33.6674616 L19.6849616,33.6364724 L17.766191,27.6466902 L20.5389682,27.6466902 C20.6092206,30.2586425 21.3227223,32.0604469 21.7069155,32.6713781 L21.726674,32.7001539 C21.7937627,32.7867773 21.8065137,32.904198 21.7596048,33.003406 Z M30.4884742,20.2734588 L30.4884742,29.2846942 C28.8265642,28.3705109 25.4390779,26.6528203 23.0241493,26.3606358 L23.0241493,20.7205896 C25.36663,20.4084835 28.8177826,18.6885793 30.4884742,17.7854636 L30.4884742,20.2734588 Z M32.1899012,24.5898207 L31.805708,24.5898207 L31.805708,21.6015702 L32.2008781,21.6015702 C33.0193023,21.6015702 33.6827661,22.2705128 33.6827661,23.0956954 C33.6827661,23.920878 33.0193023,24.5898207 32.2008781,24.5898207 L32.1899012,24.5898207 Z" id="icon" fill="#2E3192" fill-rule="nonzero"></path>
                        </g>
                    </g>
                </g>
            </g>
        </g>
    </g>
</svg>