<?xml version="1.0" encoding="UTF-8"?>
<svg width="50px" height="50px" viewBox="0 0 50 50" version="1.1" xmlns="http://www.w3.org/2000/svg" xmlns:xlink="http://www.w3.org/1999/xlink">
    <!-- Generator: Sketch 50.2 (55047) - http://www.bohemiancoding.com/sketch -->
    <title>roi-tracking</title>
    <desc>Created with Sketch.</desc>
    <defs></defs>
    <g id="[current]-Landing-page" stroke="none" stroke-width="1" fill="none" fill-rule="evenodd">
        <g id="chatchamp-" transform="translate(-748.000000, -4490.000000)">
            <g id="section-7" transform="translate(242.000000, 4145.000000)">
                <g id="features" transform="translate(0.000000, 98.000000)">
                    <g id="roi" transform="translate(506.000000, 247.000000)">
                        <g id="roi-tracking">
                            <path d="M8.36352,-2.13162821e-14 L41.63648,-2.30926389e-14 C46.2555246,-2.39411436e-14 50,3.74447545 50,8.36352 L50,41.63648 C50,46.2555246 46.2555246,50 41.63648,50 L8.36352,50 C3.74447545,50 -3.73695801e-13,46.2555246 -3.78364007e-13,41.63648 L-3.78364007e-13,8.36352 C-3.78929677e-13,3.74447545 3.74447545,-2.22441342e-14 8.36352,-2.30926389e-14 Z" id="bg" fill="#FFF9D3"></path>
                            <g id="icon" transform="translate(12.000000, 13.000000)" fill="#D9BA00">
                                <text id="€" font-family="ProximaNova-Semibold, Proxima Nova" font-size="13" font-weight="500">
                                    <tspan x="8.2095601" y="16.996701">€</tspan>
                                </text>
                                <path d="M21.2338917,9.06756102 C21.5121999,9.12141749 21.8461696,8.9598481 21.9018313,8.69056579 L22.3471243,6.85944608 C25.2415289,11.3833889 24.183958,17.4153126 19.6753662,20.7005568 C15.8347138,23.5549493 10.6581825,23.5549493 6.87319178,21.0236956 C6.59488365,20.8621262 6.26091388,20.9159827 6.093929,21.185265 C5.92694411,21.4545473 5.98260574,21.7776861 6.26091388,21.9392554 C10.3798743,24.685935 16.113022,24.7936479 20.3989673,21.6161167 C25.1858673,18.0615902 26.5217464,11.5988147 23.4603568,6.59016377 L25.2415289,7.12872839 C25.5198371,7.23644132 25.8538068,7.07487193 25.9651301,6.80558962 C26.0764533,6.53630731 25.9094685,6.21316854 25.6311603,6.10545562 L22.235801,5.02832638 C21.9574929,4.92061345 21.5678615,5.1360393 21.5121999,5.40532161 L20.7885987,8.42128348 C20.7329371,8.69056579 20.899922,9.01370456 21.2338917,9.06756102 Z" id="Shape" stroke="#D9BA00" stroke-width="0.5" fill-rule="nonzero"></path>
                                <path d="M0.359644087,16.1475134 L3.26016026,17.0743434 C3.56021366,17.1719044 3.86026705,16.9767823 3.91027595,16.7328797 L4.56039165,13.9036092 C4.61040055,13.6597066 4.46037385,13.3670235 4.16032045,13.3182429 C3.91027595,13.2694624 3.61022256,13.415804 3.56021366,13.7084871 L3.16014246,15.464586 C2.05994667,13.5621456 1.60986658,11.4158025 1.85991107,9.26945938 C2.20997337,6.73287209 3.51020476,4.48896794 5.61057854,2.92799114 C7.66094342,1.36701435 10.2614062,0.684086998 12.861869,1.02555067 C14.4121449,1.22067277 15.9124118,1.80603907 17.2126432,2.68408852 C17.4626877,2.83043009 17.7627411,2.78164957 17.9127678,2.58652747 C18.0627945,2.34262484 18.0127856,2.04994169 17.81275,1.90360012 C16.4125008,0.927989622 14.7622071,0.293842798 13.0118957,0.0987206987 C10.1113795,-0.291523501 7.31088112,0.488964898 5.01047174,2.19628327 C2.71006236,3.90360164 1.25980428,6.34262789 0.859733082,9.12311781 C0.559679685,11.4158025 1.00975978,13.7084871 2.20997337,15.7084887 L0.659697484,15.2206834 C0.409652987,15.1231224 0.10959959,15.2694639 0.00958179053,15.5133666 C-0.040427109,15.8060497 0.10959959,16.0499523 0.359644087,16.1475134 Z" id="Shape" stroke="#D9BA00" stroke-width="0.5" fill-rule="nonzero"></path>
                            </g>
                        </g>
                    </g>
                </g>
            </g>
        </g>
    </g>
</svg>