<?xml version="1.0" encoding="UTF-8"?>
<svg width="50px" height="50px" viewBox="0 0 50 50" version="1.1" xmlns="http://www.w3.org/2000/svg" xmlns:xlink="http://www.w3.org/1999/xlink">
    <!-- Generator: Sketch 50.2 (55047) - http://www.bohemiancoding.com/sketch -->
    <title>sequence-builder</title>
    <desc>Created with Sketch.</desc>
    <defs></defs>
    <g id="[current]-Landing-page" stroke="none" stroke-width="1" fill="none" fill-rule="evenodd">
        <g id="chatchamp-" transform="translate(-495.000000, -4243.000000)">
            <g id="section-7" transform="translate(242.000000, 4145.000000)">
                <g id="features" transform="translate(0.000000, 98.000000)">
                    <g id="sequence" transform="translate(253.000000, 0.000000)">
                        <g id="sequence-builder">
                            <path d="M8.36352,-2.13162821e-14 L41.63648,-2.30926389e-14 C46.2555246,-2.39411436e-14 50,3.74447545 50,8.36352 L50,41.63648 C50,46.2555246 46.2555246,50 41.63648,50 L8.36352,50 C3.74447545,50 -3.73695801e-13,46.2555246 -3.78364007e-13,41.63648 L-3.78364007e-13,8.36352 C-3.78929677e-13,3.74447545 3.74447545,-2.22441342e-14 8.36352,-2.30926389e-14 Z" id="bg" fill="#FFF9D3"></path>
                            <g id="icon" transform="translate(14.000000, 16.000000)" fill="#D9BA00" fill-rule="nonzero" stroke="#FFF9D3">
                                <path d="M5.65384615,3.95833333 L2.42307692,3.95833333 L2.42307692,15.0416667 L9.69230769,15.0416667 C9.69230769,15.0416667 10.5,15.0416667 10.5,15.8333333 L10.5,16.625 C10.5,17.4166667 9.69230769,17.4166667 9.69230769,17.4166667 L2.01354901,17.4166667 C0.89949615,17.4166667 0,16.5223204 0,15.435542 L0,3.56445803 C0,2.47046099 0.903124708,1.58333333 2.02034543,1.58333333 L5.65384615,1.58333333 L5.65384615,0 L9.69230769,2.77083333 L5.65384615,5.54166667 L5.65384615,3.95833333 Z" id="Shape"></path>
                                <path d="M17.1538462,5.54166667 L13.9230769,5.54166667 L13.9230769,16.625 L21.1923077,16.625 C21.1923077,16.625 22,16.625 22,17.4166667 L22,18.2083333 C22,19 21.1923077,19 21.1923077,19 L13.513549,19 C12.3994962,19 11.5,18.1056537 11.5,17.0188753 L11.5,5.14779136 C11.5,4.05379432 12.4031247,3.16666667 13.5203454,3.16666667 L17.1538462,3.16666667 L17.1538462,1.58333333 L21.1923077,4.35416667 L17.1538462,7.125 L17.1538462,5.54166667 Z" id="Shape" transform="translate(16.750000, 10.291667) scale(-1, -1) translate(-16.750000, -10.291667) "></path>
                            </g>
                        </g>
                    </g>
                </g>
            </g>
        </g>
    </g>
</svg>